# MagicaVoxel @ Ephtracy

# material
mtllib Enegy.mtl
usemtl palette

# normals
vn -1 0 0
vn 1 0 0
vn 0 0 1
vn 0 0 -1
vn 0 -1 0
vn 0 1 0

# texcoords
vt 0.447266 0.5
vt 0.845703 0.5
vt 0.853516 0.5

# verts
v -5 1 6
v -5 1 5
v -5 2 5
v -5 2 4
v -5 3 6
v -5 3 5
v -5 3 4
v -5 3 3
v -5 4 3
v -5 4 2
v -5 5 5
v -5 5 4
v -5 5 2
v -5 5 1
v -5 6 1
v -5 6 -0
v -5 7 4
v -5 7 3
v -5 7 -0
v -5 7 -1
v -5 8 -1
v -5 8 -2
v -5 9 3
v -5 9 2
v -5 9 -2
v -5 9 -3
v -5 10 -3
v -5 10 -4
v -5 11 9
v -5 11 8
v -5 11 2
v -5 11 -4
v -5 11 -5
v -5 12 -5
v -5 12 -6
v -5 13 9
v -5 13 8
v -5 13 1
v -5 13 -6
v -5 14 1
v -5 14 -0
v -5 15 8
v -5 15 7
v -5 15 -0
v -5 15 -1
v -5 16 -1
v -5 16 -2
v -5 17 7
v -5 17 6
v -5 17 5
v -5 17 -2
v -5 17 -3
v -5 18 -3
v -5 18 -4
v -5 19 6
v -5 19 5
v -5 19 4
v -5 19 -4
v -5 19 -5
v -5 20 -5
v -5 20 -6
v -5 21 5
v -5 21 4
v -5 21 -6
v 6 1 6
v 6 1 5
v 6 2 5
v 6 2 4
v 6 3 6
v 6 3 5
v 6 3 4
v 6 3 3
v 6 4 3
v 6 4 2
v 6 5 5
v 6 5 4
v 6 5 2
v 6 5 1
v 6 6 1
v 6 6 -0
v 6 7 4
v 6 7 3
v 6 7 -0
v 6 7 -1
v 6 8 -1
v 6 8 -2
v 6 9 3
v 6 9 2
v 6 9 -2
v 6 9 -3
v 6 10 -3
v 6 10 -4
v 6 11 9
v 6 11 8
v 6 11 2
v 6 11 -4
v 6 11 -5
v 6 12 -5
v 6 12 -6
v 6 13 9
v 6 13 8
v 6 13 1
v 6 13 -6
v 6 14 1
v 6 14 -0
v 6 15 8
v 6 15 7
v 6 15 -0
v 6 15 -1
v 6 16 -1
v 6 16 -2
v 6 17 7
v 6 17 6
v 6 17 5
v 6 17 -2
v 6 17 -3
v 6 18 -3
v 6 18 -4
v 6 19 6
v 6 19 5
v 6 19 4
v 6 19 -4
v 6 19 -5
v 6 20 -5
v 6 20 -6
v 6 21 5
v 6 21 4
v 6 21 -6
v -5 11 9
v -5 13 9
v 6 11 9
v 6 13 9
v -5 13 8
v -5 15 8
v 6 13 8
v 6 15 8
v -5 15 7
v -5 17 7
v 6 15 7
v 6 17 7
v -5 1 6
v -5 3 6
v -5 17 6
v -5 19 6
v 6 1 6
v 6 3 6
v 6 17 6
v 6 19 6
v -5 3 5
v -5 5 5
v -5 19 5
v -5 21 5
v 6 3 5
v 6 5 5
v 6 19 5
v 6 21 5
v -5 5 4
v -5 7 4
v 6 5 4
v 6 7 4
v -5 7 3
v -5 9 3
v 6 7 3
v 6 9 3
v -5 9 2
v -5 11 2
v -4 11 2
v 5 11 2
v 6 9 2
v 6 11 2
v -5 1 5
v -5 2 5
v 6 1 5
v 6 2 5
v -5 2 4
v -5 3 4
v 6 2 4
v 6 3 4
v -5 3 3
v -5 4 3
v 6 3 3
v 6 4 3
v -5 4 2
v -5 5 2
v 6 4 2
v 6 5 2
v -5 5 1
v -5 6 1
v -5 13 1
v -5 14 1
v 6 5 1
v 6 6 1
v 6 13 1
v 6 14 1
v -5 6 -0
v -5 7 -0
v -5 14 -0
v -5 15 -0
v 6 6 -0
v 6 7 -0
v 6 14 -0
v 6 15 -0
v -5 7 -1
v -5 8 -1
v -5 15 -1
v -5 16 -1
v 6 7 -1
v 6 8 -1
v 6 15 -1
v 6 16 -1
v -5 8 -2
v -5 9 -2
v -5 16 -2
v -5 17 -2
v 6 8 -2
v 6 9 -2
v 6 16 -2
v 6 17 -2
v -5 9 -3
v -5 10 -3
v -5 17 -3
v -5 18 -3
v 6 9 -3
v 6 10 -3
v 6 17 -3
v 6 18 -3
v -5 10 -4
v -5 11 -4
v -5 18 -4
v -5 19 -4
v 6 10 -4
v 6 11 -4
v 6 18 -4
v 6 19 -4
v -5 11 -5
v -5 12 -5
v -5 19 -5
v -5 20 -5
v 6 11 -5
v 6 12 -5
v 6 19 -5
v 6 20 -5
v -5 12 -6
v -5 13 -6
v -5 20 -6
v -5 21 -6
v 6 12 -6
v 6 13 -6
v 6 20 -6
v 6 21 -6
v -5 1 6
v 6 1 6
v -5 1 5
v 6 1 5
v -5 2 5
v 6 2 5
v -5 2 4
v 6 2 4
v -5 3 4
v 6 3 4
v -5 3 3
v 6 3 3
v -5 4 3
v 6 4 3
v -5 4 2
v 6 4 2
v -5 5 2
v 6 5 2
v -5 5 1
v 6 5 1
v -5 6 1
v 6 6 1
v -5 6 -0
v 6 6 -0
v -5 7 -0
v 6 7 -0
v -5 7 -1
v 6 7 -1
v -5 8 -1
v 6 8 -1
v -5 8 -2
v 6 8 -2
v -5 9 -2
v 6 9 -2
v -5 9 -3
v 6 9 -3
v -5 10 -3
v 6 10 -3
v -5 10 -4
v 6 10 -4
v -5 11 9
v 6 11 9
v -5 11 8
v -4 11 8
v 5 11 8
v 6 11 8
v -5 11 2
v -4 11 2
v 5 11 2
v 6 11 2
v -5 11 -4
v 6 11 -4
v -5 11 -5
v 6 11 -5
v -5 12 -5
v 6 12 -5
v -5 12 -6
v 6 12 -6
v -5 14 1
v 6 14 1
v -5 14 -0
v 6 14 -0
v -5 15 -0
v 6 15 -0
v -5 15 -1
v 6 15 -1
v -5 16 -1
v 6 16 -1
v -5 16 -2
v 6 16 -2
v -5 17 -2
v 6 17 -2
v -5 17 -3
v 6 17 -3
v -5 18 -3
v 6 18 -3
v -5 18 -4
v 6 18 -4
v -5 19 -4
v 6 19 -4
v -5 19 -5
v 6 19 -5
v -5 20 -5
v 6 20 -5
v -5 20 -6
v 6 20 -6
v -5 3 6
v 6 3 6
v -5 3 5
v 6 3 5
v -5 5 5
v 6 5 5
v -5 5 4
v 6 5 4
v -5 7 4
v 6 7 4
v -5 7 3
v 6 7 3
v -5 9 3
v 6 9 3
v -5 9 2
v 6 9 2
v -5 13 9
v 6 13 9
v -5 13 8
v 6 13 8
v -5 13 1
v 6 13 1
v -5 13 -6
v 6 13 -6
v -5 15 8
v 6 15 8
v -5 15 7
v 6 15 7
v -5 17 7
v 6 17 7
v -5 17 6
v 6 17 6
v -5 19 6
v 6 19 6
v -5 19 5
v 6 19 5
v -5 21 5
v 6 21 5
v -5 21 4
v 6 21 4
v -5 21 -6
v 6 21 -6

# faces
f 3/2/1 2/2/1 1/2/1
f 5/2/1 3/2/1 1/2/1
f 5/2/1 4/2/1 3/2/1
f 6/2/1 4/2/1 5/2/1
f 7/2/1 4/2/1 6/2/1
f 9/2/1 8/2/1 7/2/1
f 9/2/1 7/2/1 6/2/1
f 11/2/1 9/2/1 6/2/1
f 11/2/1 10/2/1 9/2/1
f 12/2/1 10/2/1 11/2/1
f 13/2/1 10/2/1 12/2/1
f 15/2/1 14/2/1 13/2/1
f 15/2/1 13/2/1 12/2/1
f 17/2/1 15/2/1 12/2/1
f 17/2/1 16/2/1 15/2/1
f 18/2/1 16/2/1 17/2/1
f 19/2/1 16/2/1 18/2/1
f 21/2/1 20/2/1 19/2/1
f 21/2/1 19/2/1 18/2/1
f 23/2/1 21/2/1 18/2/1
f 23/2/1 22/2/1 21/2/1
f 24/2/1 22/2/1 23/2/1
f 25/2/1 22/2/1 24/2/1
f 27/2/1 26/2/1 25/2/1
f 27/2/1 25/2/1 24/2/1
f 31/2/1 27/2/1 24/2/1
f 31/2/1 28/2/1 27/2/1
f 32/2/1 28/2/1 31/2/1
f 34/3/1 31/3/1 30/3/1
f 34/3/1 33/3/1 32/3/1
f 34/3/1 32/3/1 31/3/1
f 36/2/1 30/2/1 29/2/1
f 37/3/1 35/3/1 34/3/1
f 37/2/1 30/2/1 36/2/1
f 37/3/1 34/3/1 30/3/1
f 38/3/1 35/3/1 37/3/1
f 39/3/1 35/3/1 38/3/1
f 40/2/1 38/2/1 37/2/1
f 42/2/1 40/2/1 37/2/1
f 42/2/1 41/2/1 40/2/1
f 43/2/1 41/2/1 42/2/1
f 44/2/1 41/2/1 43/2/1
f 46/2/1 45/2/1 44/2/1
f 46/2/1 44/2/1 43/2/1
f 48/2/1 46/2/1 43/2/1
f 48/2/1 47/2/1 46/2/1
f 49/2/1 47/2/1 48/2/1
f 50/2/1 47/2/1 49/2/1
f 51/2/1 47/2/1 50/2/1
f 53/3/1 52/3/1 51/3/1
f 53/3/1 51/3/1 50/3/1
f 55/2/1 50/2/1 49/2/1
f 56/3/1 54/3/1 53/3/1
f 56/2/1 50/2/1 55/2/1
f 56/3/1 53/3/1 50/3/1
f 57/3/1 54/3/1 56/3/1
f 58/3/1 54/3/1 57/3/1
f 60/3/1 59/3/1 58/3/1
f 60/3/1 58/3/1 57/3/1
f 62/2/1 57/2/1 56/2/1
f 63/3/1 61/3/1 60/3/1
f 63/2/1 57/2/1 62/2/1
f 63/3/1 60/3/1 57/3/1
f 64/3/1 61/3/1 63/3/1
f 65/2/2 66/2/2 67/2/2
f 65/2/2 67/2/2 69/2/2
f 67/2/2 68/2/2 69/2/2
f 69/2/2 68/2/2 70/2/2
f 70/2/2 68/2/2 71/2/2
f 71/2/2 72/2/2 73/2/2
f 70/2/2 71/2/2 73/2/2
f 70/2/2 73/2/2 75/2/2
f 73/2/2 74/2/2 75/2/2
f 75/2/2 74/2/2 76/2/2
f 76/2/2 74/2/2 77/2/2
f 77/2/2 78/2/2 79/2/2
f 76/2/2 77/2/2 79/2/2
f 76/2/2 79/2/2 81/2/2
f 79/2/2 80/2/2 81/2/2
f 81/2/2 80/2/2 82/2/2
f 82/2/2 80/2/2 83/2/2
f 83/2/2 84/2/2 85/2/2
f 82/2/2 83/2/2 85/2/2
f 82/2/2 85/2/2 87/2/2
f 85/2/2 86/2/2 87/2/2
f 87/2/2 86/2/2 88/2/2
f 88/2/2 86/2/2 89/2/2
f 89/2/2 90/2/2 91/2/2
f 88/2/2 89/2/2 91/2/2
f 88/2/2 91/2/2 95/2/2
f 91/2/2 92/2/2 95/2/2
f 95/2/2 92/2/2 96/2/2
f 94/3/2 95/3/2 98/3/2
f 96/3/2 97/3/2 98/3/2
f 95/3/2 96/3/2 98/3/2
f 93/2/2 94/2/2 100/2/2
f 98/3/2 99/3/2 101/3/2
f 100/2/2 94/2/2 101/2/2
f 94/3/2 98/3/2 101/3/2
f 101/3/2 99/3/2 102/3/2
f 102/3/2 99/3/2 103/3/2
f 101/2/2 102/2/2 104/2/2
f 101/2/2 104/2/2 106/2/2
f 104/2/2 105/2/2 106/2/2
f 106/2/2 105/2/2 107/2/2
f 107/2/2 105/2/2 108/2/2
f 108/2/2 109/2/2 110/2/2
f 107/2/2 108/2/2 110/2/2
f 107/2/2 110/2/2 112/2/2
f 110/2/2 111/2/2 112/2/2
f 112/2/2 111/2/2 113/2/2
f 113/2/2 111/2/2 114/2/2
f 114/2/2 111/2/2 115/2/2
f 115/3/2 116/3/2 117/3/2
f 114/3/2 115/3/2 117/3/2
f 113/2/2 114/2/2 119/2/2
f 117/3/2 118/3/2 120/3/2
f 119/2/2 114/2/2 120/2/2
f 114/3/2 117/3/2 120/3/2
f 120/3/2 118/3/2 121/3/2
f 121/3/2 118/3/2 122/3/2
f 122/3/2 123/3/2 124/3/2
f 121/3/2 122/3/2 124/3/2
f 120/2/2 121/2/2 126/2/2
f 124/3/2 125/3/2 127/3/2
f 126/2/2 121/2/2 127/2/2
f 121/3/2 124/3/2 127/3/2
f 127/3/2 125/3/2 128/3/2
f 131/2/3 130/2/3 129/2/3
f 132/2/3 130/2/3 131/2/3
f 135/2/3 134/2/3 133/2/3
f 136/2/3 134/2/3 135/2/3
f 139/2/3 138/2/3 137/2/3
f 140/2/3 138/2/3 139/2/3
f 145/2/3 142/2/3 141/2/3
f 146/2/3 142/2/3 145/2/3
f 147/2/3 144/2/3 143/2/3
f 148/2/3 144/2/3 147/2/3
f 153/2/3 150/2/3 149/2/3
f 154/2/3 150/2/3 153/2/3
f 155/2/3 152/2/3 151/2/3
f 156/2/3 152/2/3 155/2/3
f 159/2/3 158/2/3 157/2/3
f 160/2/3 158/2/3 159/2/3
f 163/2/3 162/2/3 161/2/3
f 164/2/3 162/2/3 163/2/3
f 167/2/3 166/2/3 165/2/3
f 168/2/3 167/2/3 165/2/3
f 169/2/3 168/2/3 165/2/3
f 170/2/3 168/2/3 169/2/3
f 171/2/4 172/2/4 173/2/4
f 173/2/4 172/2/4 174/2/4
f 175/2/4 176/2/4 177/2/4
f 177/2/4 176/2/4 178/2/4
f 179/2/4 180/2/4 181/2/4
f 181/2/4 180/2/4 182/2/4
f 183/2/4 184/2/4 185/2/4
f 185/2/4 184/2/4 186/2/4
f 187/2/4 188/2/4 191/2/4
f 191/2/4 188/2/4 192/2/4
f 189/2/4 190/2/4 193/2/4
f 193/2/4 190/2/4 194/2/4
f 195/2/4 196/2/4 199/2/4
f 199/2/4 196/2/4 200/2/4
f 197/2/4 198/2/4 201/2/4
f 201/2/4 198/2/4 202/2/4
f 203/2/4 204/2/4 207/2/4
f 207/2/4 204/2/4 208/2/4
f 205/2/4 206/2/4 209/2/4
f 209/2/4 206/2/4 210/2/4
f 211/2/4 212/2/4 215/2/4
f 215/2/4 212/2/4 216/2/4
f 213/2/4 214/2/4 217/2/4
f 217/2/4 214/2/4 218/2/4
f 219/2/4 220/2/4 223/2/4
f 223/2/4 220/2/4 224/2/4
f 221/3/4 222/3/4 225/3/4
f 225/3/4 222/3/4 226/3/4
f 227/2/4 228/2/4 231/2/4
f 231/2/4 228/2/4 232/2/4
f 229/3/4 230/3/4 233/3/4
f 233/3/4 230/3/4 234/3/4
f 235/3/4 236/3/4 239/3/4
f 239/3/4 236/3/4 240/3/4
f 237/3/4 238/3/4 241/3/4
f 241/3/4 238/3/4 242/3/4
f 243/3/4 244/3/4 247/3/4
f 247/3/4 244/3/4 248/3/4
f 245/3/4 246/3/4 249/3/4
f 249/3/4 246/3/4 250/3/4
f 253/2/5 252/2/5 251/2/5
f 254/2/5 252/2/5 253/2/5
f 257/2/5 256/2/5 255/2/5
f 258/2/5 256/2/5 257/2/5
f 261/2/5 260/2/5 259/2/5
f 262/2/5 260/2/5 261/2/5
f 265/2/5 264/2/5 263/2/5
f 266/2/5 264/2/5 265/2/5
f 269/2/5 268/2/5 267/2/5
f 270/2/5 268/2/5 269/2/5
f 273/2/5 272/2/5 271/2/5
f 274/2/5 272/2/5 273/2/5
f 277/2/5 276/2/5 275/2/5
f 278/2/5 276/2/5 277/2/5
f 281/2/5 280/2/5 279/2/5
f 282/2/5 280/2/5 281/2/5
f 285/2/5 284/2/5 283/2/5
f 286/2/5 284/2/5 285/2/5
f 289/2/5 288/2/5 287/2/5
f 290/2/5 288/2/5 289/2/5
f 293/2/5 292/2/5 291/2/5
f 294/2/5 292/2/5 293/2/5
f 295/2/5 292/2/5 294/2/5
f 296/2/5 292/2/5 295/2/5
f 297/3/5 294/3/5 293/3/5
f 298/2/5 295/2/5 294/2/5
f 298/3/5 294/3/5 297/3/5
f 299/3/5 296/3/5 295/3/5
f 299/2/5 295/2/5 298/2/5
f 300/3/5 296/3/5 299/3/5
f 303/3/5 302/3/5 301/3/5
f 304/3/5 302/3/5 303/3/5
f 307/3/5 306/3/5 305/3/5
f 308/3/5 306/3/5 307/3/5
f 311/2/5 310/2/5 309/2/5
f 312/2/5 310/2/5 311/2/5
f 315/2/5 314/2/5 313/2/5
f 316/2/5 314/2/5 315/2/5
f 319/2/5 318/2/5 317/2/5
f 320/2/5 318/2/5 319/2/5
f 323/3/5 322/3/5 321/3/5
f 324/3/5 322/3/5 323/3/5
f 327/3/5 326/3/5 325/3/5
f 328/3/5 326/3/5 327/3/5
f 331/3/5 330/3/5 329/3/5
f 332/3/5 330/3/5 331/3/5
f 335/3/5 334/3/5 333/3/5
f 336/3/5 334/3/5 335/3/5
f 337/2/6 338/2/6 339/2/6
f 339/2/6 338/2/6 340/2/6
f 341/2/6 342/2/6 343/2/6
f 343/2/6 342/2/6 344/2/6
f 345/2/6 346/2/6 347/2/6
f 347/2/6 346/2/6 348/2/6
f 349/2/6 350/2/6 351/2/6
f 351/2/6 350/2/6 352/2/6
f 353/2/6 354/2/6 355/2/6
f 355/2/6 354/2/6 356/2/6
f 357/3/6 358/3/6 359/3/6
f 359/3/6 358/3/6 360/3/6
f 361/2/6 362/2/6 363/2/6
f 363/2/6 362/2/6 364/2/6
f 365/2/6 366/2/6 367/2/6
f 367/2/6 366/2/6 368/2/6
f 369/2/6 370/2/6 371/2/6
f 371/2/6 370/2/6 372/2/6
f 373/2/6 374/2/6 375/2/6
f 375/2/6 374/2/6 376/2/6
f 375/3/6 376/3/6 377/3/6
f 377/3/6 376/3/6 378/3/6
